ply
format ascii 1.0
element vertex 728
property float x
property float y
property float z
end_header
-1.0000 -1.0000 -1.0000
-1.0000 -1.0000 -0.8182
-1.0000 -1.0000 -0.6364
-1.0000 -1.0000 -0.4545
-1.0000 -1.0000 -0.2727
-1.0000 -1.0000 -0.0909
-1.0000 -1.0000 0.0909
-1.0000 -1.0000 0.2727
-1.0000 -1.0000 0.4545
-1.0000 -1.0000 0.6364
-1.0000 -1.0000 0.8182
-1.0000 -1.0000 1.0000
-1.0000 -0.8182 -1.0000
-1.0000 -0.8182 -0.8182
-1.0000 -0.8182 -0.6364
-1.0000 -0.8182 -0.4545
-1.0000 -0.8182 -0.2727
-1.0000 -0.8182 -0.0909
-1.0000 -0.8182 0.0909
-1.0000 -0.8182 0.2727
-1.0000 -0.8182 0.4545
-1.0000 -0.8182 0.6364
-1.0000 -0.8182 0.8182
-1.0000 -0.8182 1.0000
-1.0000 -0.6364 -1.0000
-1.0000 -0.6364 -0.8182
-1.0000 -0.6364 -0.6364
-1.0000 -0.6364 -0.4545
-1.0000 -0.6364 -0.2727
-1.0000 -0.6364 -0.0909
-1.0000 -0.6364 0.0909
-1.0000 -0.6364 0.2727
-1.0000 -0.6364 0.4545
-1.0000 -0.6364 0.6364
-1.0000 -0.6364 0.8182
-1.0000 -0.6364 1.0000
-1.0000 -0.4545 -1.0000
-1.0000 -0.4545 -0.8182
-1.0000 -0.4545 -0.6364
-1.0000 -0.4545 -0.4545
-1.0000 -0.4545 -0.2727
-1.0000 -0.4545 -0.0909
-1.0000 -0.4545 0.0909
-1.0000 -0.4545 0.2727
-1.0000 -0.4545 0.4545
-1.0000 -0.4545 0.6364
-1.0000 -0.4545 0.8182
-1.0000 -0.4545 1.0000
-1.0000 -0.2727 -1.0000
-1.0000 -0.2727 -0.8182
-1.0000 -0.2727 -0.6364
-1.0000 -0.2727 -0.4545
-1.0000 -0.2727 -0.2727
-1.0000 -0.2727 -0.0909
-1.0000 -0.2727 0.0909
-1.0000 -0.2727 0.2727
-1.0000 -0.2727 0.4545
-1.0000 -0.2727 0.6364
-1.0000 -0.2727 0.8182
-1.0000 -0.2727 1.0000
-1.0000 -0.0909 -1.0000
-1.0000 -0.0909 -0.8182
-1.0000 -0.0909 -0.6364
-1.0000 -0.0909 -0.4545
-1.0000 -0.0909 -0.2727
-1.0000 -0.0909 -0.0909
-1.0000 -0.0909 0.0909
-1.0000 -0.0909 0.2727
-1.0000 -0.0909 0.4545
-1.0000 -0.0909 0.6364
-1.0000 -0.0909 0.8182
-1.0000 -0.0909 1.0000
-1.0000 0.0909 -1.0000
-1.0000 0.0909 -0.8182
-1.0000 0.0909 -0.6364
-1.0000 0.0909 -0.4545
-1.0000 0.0909 -0.2727
-1.0000 0.0909 -0.0909
-1.0000 0.0909 0.0909
-1.0000 0.0909 0.2727
-1.0000 0.0909 0.4545
-1.0000 0.0909 0.6364
-1.0000 0.0909 0.8182
-1.0000 0.0909 1.0000
-1.0000 0.2727 -1.0000
-1.0000 0.2727 -0.8182
-1.0000 0.2727 -0.6364
-1.0000 0.2727 -0.4545
-1.0000 0.2727 -0.2727
-1.0000 0.2727 -0.0909
-1.0000 0.2727 0.0909
-1.0000 0.2727 0.2727
-1.0000 0.2727 0.4545
-1.0000 0.2727 0.6364
-1.0000 0.2727 0.8182
-1.0000 0.2727 1.0000
-1.0000 0.4545 -1.0000
-1.0000 0.4545 -0.8182
-1.0000 0.4545 -0.6364
-1.0000 0.4545 -0.4545
-1.0000 0.4545 -0.2727
-1.0000 0.4545 -0.0909
-1.0000 0.4545 0.0909
-1.0000 0.4545 0.2727
-1.0000 0.4545 0.4545
-1.0000 0.4545 0.6364
-1.0000 0.4545 0.8182
-1.0000 0.4545 1.0000
-1.0000 0.6364 -1.0000
-1.0000 0.6364 -0.8182
-1.0000 0.6364 -0.6364
-1.0000 0.6364 -0.4545
-1.0000 0.6364 -0.2727
-1.0000 0.6364 -0.0909
-1.0000 0.6364 0.0909
-1.0000 0.6364 0.2727
-1.0000 0.6364 0.4545
-1.0000 0.6364 0.6364
-1.0000 0.6364 0.8182
-1.0000 0.6364 1.0000
-1.0000 0.8182 -1.0000
-1.0000 0.8182 -0.8182
-1.0000 0.8182 -0.6364
-1.0000 0.8182 -0.4545
-1.0000 0.8182 -0.2727
-1.0000 0.8182 -0.0909
-1.0000 0.8182 0.0909
-1.0000 0.8182 0.2727
-1.0000 0.8182 0.4545
-1.0000 0.8182 0.6364
-1.0000 0.8182 0.8182
-1.0000 0.8182 1.0000
-1.0000 1.0000 -1.0000
-1.0000 1.0000 -0.8182
-1.0000 1.0000 -0.6364
-1.0000 1.0000 -0.4545
-1.0000 1.0000 -0.2727
-1.0000 1.0000 -0.0909
-1.0000 1.0000 0.0909
-1.0000 1.0000 0.2727
-1.0000 1.0000 0.4545
-1.0000 1.0000 0.6364
-1.0000 1.0000 0.8182
-1.0000 1.0000 1.0000
-0.8182 -1.0000 -1.0000
-0.8182 -1.0000 -0.8182
-0.8182 -1.0000 -0.6364
-0.8182 -1.0000 -0.4545
-0.8182 -1.0000 -0.2727
-0.8182 -1.0000 -0.0909
-0.8182 -1.0000 0.0909
-0.8182 -1.0000 0.2727
-0.8182 -1.0000 0.4545
-0.8182 -1.0000 0.6364
-0.8182 -1.0000 0.8182
-0.8182 -1.0000 1.0000
-0.8182 -0.8182 -1.0000
-0.8182 -0.8182 1.0000
-0.8182 -0.6364 -1.0000
-0.8182 -0.6364 1.0000
-0.8182 -0.4545 -1.0000
-0.8182 -0.4545 1.0000
-0.8182 -0.2727 -1.0000
-0.8182 -0.2727 1.0000
-0.8182 -0.0909 -1.0000
-0.8182 -0.0909 1.0000
-0.8182 0.0909 -1.0000
-0.8182 0.0909 1.0000
-0.8182 0.2727 -1.0000
-0.8182 0.2727 1.0000
-0.8182 0.4545 -1.0000
-0.8182 0.4545 1.0000
-0.8182 0.6364 -1.0000
-0.8182 0.6364 1.0000
-0.8182 0.8182 -1.0000
-0.8182 0.8182 1.0000
-0.8182 1.0000 -1.0000
-0.8182 1.0000 -0.8182
-0.8182 1.0000 -0.6364
-0.8182 1.0000 -0.4545
-0.8182 1.0000 -0.2727
-0.8182 1.0000 -0.0909
-0.8182 1.0000 0.0909
-0.8182 1.0000 0.2727
-0.8182 1.0000 0.4545
-0.8182 1.0000 0.6364
-0.8182 1.0000 0.8182
-0.8182 1.0000 1.0000
-0.6364 -1.0000 -1.0000
-0.6364 -1.0000 -0.8182
-0.6364 -1.0000 -0.6364
-0.6364 -1.0000 -0.4545
-0.6364 -1.0000 -0.2727
-0.6364 -1.0000 -0.0909
-0.6364 -1.0000 0.0909
-0.6364 -1.0000 0.2727
-0.6364 -1.0000 0.4545
-0.6364 -1.0000 0.6364
-0.6364 -1.0000 0.8182
-0.6364 -1.0000 1.0000
-0.6364 -0.8182 -1.0000
-0.6364 -0.8182 1.0000
-0.6364 -0.6364 -1.0000
-0.6364 -0.6364 1.0000
-0.6364 -0.4545 -1.0000
-0.6364 -0.4545 1.0000
-0.6364 -0.2727 -1.0000
-0.6364 -0.2727 1.0000
-0.6364 -0.0909 -1.0000
-0.6364 -0.0909 1.0000
-0.6364 0.0909 -1.0000
-0.6364 0.0909 1.0000
-0.6364 0.2727 -1.0000
-0.6364 0.2727 1.0000
-0.6364 0.4545 -1.0000
-0.6364 0.4545 1.0000
-0.6364 0.6364 -1.0000
-0.6364 0.6364 1.0000
-0.6364 0.8182 -1.0000
-0.6364 0.8182 1.0000
-0.6364 1.0000 -1.0000
-0.6364 1.0000 -0.8182
-0.6364 1.0000 -0.6364
-0.6364 1.0000 -0.4545
-0.6364 1.0000 -0.2727
-0.6364 1.0000 -0.0909
-0.6364 1.0000 0.0909
-0.6364 1.0000 0.2727
-0.6364 1.0000 0.4545
-0.6364 1.0000 0.6364
-0.6364 1.0000 0.8182
-0.6364 1.0000 1.0000
-0.4545 -1.0000 -1.0000
-0.4545 -1.0000 -0.8182
-0.4545 -1.0000 -0.6364
-0.4545 -1.0000 -0.4545
-0.4545 -1.0000 -0.2727
-0.4545 -1.0000 -0.0909
-0.4545 -1.0000 0.0909
-0.4545 -1.0000 0.2727
-0.4545 -1.0000 0.4545
-0.4545 -1.0000 0.6364
-0.4545 -1.0000 0.8182
-0.4545 -1.0000 1.0000
-0.4545 -0.8182 -1.0000
-0.4545 -0.8182 1.0000
-0.4545 -0.6364 -1.0000
-0.4545 -0.6364 1.0000
-0.4545 -0.4545 -1.0000
-0.4545 -0.4545 1.0000
-0.4545 -0.2727 -1.0000
-0.4545 -0.2727 1.0000
-0.4545 -0.0909 -1.0000
-0.4545 -0.0909 1.0000
-0.4545 0.0909 -1.0000
-0.4545 0.0909 1.0000
-0.4545 0.2727 -1.0000
-0.4545 0.2727 1.0000
-0.4545 0.4545 -1.0000
-0.4545 0.4545 1.0000
-0.4545 0.6364 -1.0000
-0.4545 0.6364 1.0000
-0.4545 0.8182 -1.0000
-0.4545 0.8182 1.0000
-0.4545 1.0000 -1.0000
-0.4545 1.0000 -0.8182
-0.4545 1.0000 -0.6364
-0.4545 1.0000 -0.4545
-0.4545 1.0000 -0.2727
-0.4545 1.0000 -0.0909
-0.4545 1.0000 0.0909
-0.4545 1.0000 0.2727
-0.4545 1.0000 0.4545
-0.4545 1.0000 0.6364
-0.4545 1.0000 0.8182
-0.4545 1.0000 1.0000
-0.2727 -1.0000 -1.0000
-0.2727 -1.0000 -0.8182
-0.2727 -1.0000 -0.6364
-0.2727 -1.0000 -0.4545
-0.2727 -1.0000 -0.2727
-0.2727 -1.0000 -0.0909
-0.2727 -1.0000 0.0909
-0.2727 -1.0000 0.2727
-0.2727 -1.0000 0.4545
-0.2727 -1.0000 0.6364
-0.2727 -1.0000 0.8182
-0.2727 -1.0000 1.0000
-0.2727 -0.8182 -1.0000
-0.2727 -0.8182 1.0000
-0.2727 -0.6364 -1.0000
-0.2727 -0.6364 1.0000
-0.2727 -0.4545 -1.0000
-0.2727 -0.4545 1.0000
-0.2727 -0.2727 -1.0000
-0.2727 -0.2727 1.0000
-0.2727 -0.0909 -1.0000
-0.2727 -0.0909 1.0000
-0.2727 0.0909 -1.0000
-0.2727 0.0909 1.0000
-0.2727 0.2727 -1.0000
-0.2727 0.2727 1.0000
-0.2727 0.4545 -1.0000
-0.2727 0.4545 1.0000
-0.2727 0.6364 -1.0000
-0.2727 0.6364 1.0000
-0.2727 0.8182 -1.0000
-0.2727 0.8182 1.0000
-0.2727 1.0000 -1.0000
-0.2727 1.0000 -0.8182
-0.2727 1.0000 -0.6364
-0.2727 1.0000 -0.4545
-0.2727 1.0000 -0.2727
-0.2727 1.0000 -0.0909
-0.2727 1.0000 0.0909
-0.2727 1.0000 0.2727
-0.2727 1.0000 0.4545
-0.2727 1.0000 0.6364
-0.2727 1.0000 0.8182
-0.2727 1.0000 1.0000
-0.0909 -1.0000 -1.0000
-0.0909 -1.0000 -0.8182
-0.0909 -1.0000 -0.6364
-0.0909 -1.0000 -0.4545
-0.0909 -1.0000 -0.2727
-0.0909 -1.0000 -0.0909
-0.0909 -1.0000 0.0909
-0.0909 -1.0000 0.2727
-0.0909 -1.0000 0.4545
-0.0909 -1.0000 0.6364
-0.0909 -1.0000 0.8182
-0.0909 -1.0000 1.0000
-0.0909 -0.8182 -1.0000
-0.0909 -0.8182 1.0000
-0.0909 -0.6364 -1.0000
-0.0909 -0.6364 1.0000
-0.0909 -0.4545 -1.0000
-0.0909 -0.4545 1.0000
-0.0909 -0.2727 -1.0000
-0.0909 -0.2727 1.0000
-0.0909 -0.0909 -1.0000
-0.0909 -0.0909 1.0000
-0.0909 0.0909 -1.0000
-0.0909 0.0909 1.0000
-0.0909 0.2727 -1.0000
-0.0909 0.2727 1.0000
-0.0909 0.4545 -1.0000
-0.0909 0.4545 1.0000
-0.0909 0.6364 -1.0000
-0.0909 0.6364 1.0000
-0.0909 0.8182 -1.0000
-0.0909 0.8182 1.0000
-0.0909 1.0000 -1.0000
-0.0909 1.0000 -0.8182
-0.0909 1.0000 -0.6364
-0.0909 1.0000 -0.4545
-0.0909 1.0000 -0.2727
-0.0909 1.0000 -0.0909
-0.0909 1.0000 0.0909
-0.0909 1.0000 0.2727
-0.0909 1.0000 0.4545
-0.0909 1.0000 0.6364
-0.0909 1.0000 0.8182
-0.0909 1.0000 1.0000
0.0909 -1.0000 -1.0000
0.0909 -1.0000 -0.8182
0.0909 -1.0000 -0.6364
0.0909 -1.0000 -0.4545
0.0909 -1.0000 -0.2727
0.0909 -1.0000 -0.0909
0.0909 -1.0000 0.0909
0.0909 -1.0000 0.2727
0.0909 -1.0000 0.4545
0.0909 -1.0000 0.6364
0.0909 -1.0000 0.8182
0.0909 -1.0000 1.0000
0.0909 -0.8182 -1.0000
0.0909 -0.8182 1.0000
0.0909 -0.6364 -1.0000
0.0909 -0.6364 1.0000
0.0909 -0.4545 -1.0000
0.0909 -0.4545 1.0000
0.0909 -0.2727 -1.0000
0.0909 -0.2727 1.0000
0.0909 -0.0909 -1.0000
0.0909 -0.0909 1.0000
0.0909 0.0909 -1.0000
0.0909 0.0909 1.0000
0.0909 0.2727 -1.0000
0.0909 0.2727 1.0000
0.0909 0.4545 -1.0000
0.0909 0.4545 1.0000
0.0909 0.6364 -1.0000
0.0909 0.6364 1.0000
0.0909 0.8182 -1.0000
0.0909 0.8182 1.0000
0.0909 1.0000 -1.0000
0.0909 1.0000 -0.8182
0.0909 1.0000 -0.6364
0.0909 1.0000 -0.4545
0.0909 1.0000 -0.2727
0.0909 1.0000 -0.0909
0.0909 1.0000 0.0909
0.0909 1.0000 0.2727
0.0909 1.0000 0.4545
0.0909 1.0000 0.6364
0.0909 1.0000 0.8182
0.0909 1.0000 1.0000
0.2727 -1.0000 -1.0000
0.2727 -1.0000 -0.8182
0.2727 -1.0000 -0.6364
0.2727 -1.0000 -0.4545
0.2727 -1.0000 -0.2727
0.2727 -1.0000 -0.0909
0.2727 -1.0000 0.0909
0.2727 -1.0000 0.2727
0.2727 -1.0000 0.4545
0.2727 -1.0000 0.6364
0.2727 -1.0000 0.8182
0.2727 -1.0000 1.0000
0.2727 -0.8182 -1.0000
0.2727 -0.8182 1.0000
0.2727 -0.6364 -1.0000
0.2727 -0.6364 1.0000
0.2727 -0.4545 -1.0000
0.2727 -0.4545 1.0000
0.2727 -0.2727 -1.0000
0.2727 -0.2727 1.0000
0.2727 -0.0909 -1.0000
0.2727 -0.0909 1.0000
0.2727 0.0909 -1.0000
0.2727 0.0909 1.0000
0.2727 0.2727 -1.0000
0.2727 0.2727 1.0000
0.2727 0.4545 -1.0000
0.2727 0.4545 1.0000
0.2727 0.6364 -1.0000
0.2727 0.6364 1.0000
0.2727 0.8182 -1.0000
0.2727 0.8182 1.0000
0.2727 1.0000 -1.0000
0.2727 1.0000 -0.8182
0.2727 1.0000 -0.6364
0.2727 1.0000 -0.4545
0.2727 1.0000 -0.2727
0.2727 1.0000 -0.0909
0.2727 1.0000 0.0909
0.2727 1.0000 0.2727
0.2727 1.0000 0.4545
0.2727 1.0000 0.6364
0.2727 1.0000 0.8182
0.2727 1.0000 1.0000
0.4545 -1.0000 -1.0000
0.4545 -1.0000 -0.8182
0.4545 -1.0000 -0.6364
0.4545 -1.0000 -0.4545
0.4545 -1.0000 -0.2727
0.4545 -1.0000 -0.0909
0.4545 -1.0000 0.0909
0.4545 -1.0000 0.2727
0.4545 -1.0000 0.4545
0.4545 -1.0000 0.6364
0.4545 -1.0000 0.8182
0.4545 -1.0000 1.0000
0.4545 -0.8182 -1.0000
0.4545 -0.8182 1.0000
0.4545 -0.6364 -1.0000
0.4545 -0.6364 1.0000
0.4545 -0.4545 -1.0000
0.4545 -0.4545 1.0000
0.4545 -0.2727 -1.0000
0.4545 -0.2727 1.0000
0.4545 -0.0909 -1.0000
0.4545 -0.0909 1.0000
0.4545 0.0909 -1.0000
0.4545 0.0909 1.0000
0.4545 0.2727 -1.0000
0.4545 0.2727 1.0000
0.4545 0.4545 -1.0000
0.4545 0.4545 1.0000
0.4545 0.6364 -1.0000
0.4545 0.6364 1.0000
0.4545 0.8182 -1.0000
0.4545 0.8182 1.0000
0.4545 1.0000 -1.0000
0.4545 1.0000 -0.8182
0.4545 1.0000 -0.6364
0.4545 1.0000 -0.4545
0.4545 1.0000 -0.2727
0.4545 1.0000 -0.0909
0.4545 1.0000 0.0909
0.4545 1.0000 0.2727
0.4545 1.0000 0.4545
0.4545 1.0000 0.6364
0.4545 1.0000 0.8182
0.4545 1.0000 1.0000
0.6364 -1.0000 -1.0000
0.6364 -1.0000 -0.8182
0.6364 -1.0000 -0.6364
0.6364 -1.0000 -0.4545
0.6364 -1.0000 -0.2727
0.6364 -1.0000 -0.0909
0.6364 -1.0000 0.0909
0.6364 -1.0000 0.2727
0.6364 -1.0000 0.4545
0.6364 -1.0000 0.6364
0.6364 -1.0000 0.8182
0.6364 -1.0000 1.0000
0.6364 -0.8182 -1.0000
0.6364 -0.8182 1.0000
0.6364 -0.6364 -1.0000
0.6364 -0.6364 1.0000
0.6364 -0.4545 -1.0000
0.6364 -0.4545 1.0000
0.6364 -0.2727 -1.0000
0.6364 -0.2727 1.0000
0.6364 -0.0909 -1.0000
0.6364 -0.0909 1.0000
0.6364 0.0909 -1.0000
0.6364 0.0909 1.0000
0.6364 0.2727 -1.0000
0.6364 0.2727 1.0000
0.6364 0.4545 -1.0000
0.6364 0.4545 1.0000
0.6364 0.6364 -1.0000
0.6364 0.6364 1.0000
0.6364 0.8182 -1.0000
0.6364 0.8182 1.0000
0.6364 1.0000 -1.0000
0.6364 1.0000 -0.8182
0.6364 1.0000 -0.6364
0.6364 1.0000 -0.4545
0.6364 1.0000 -0.2727
0.6364 1.0000 -0.0909
0.6364 1.0000 0.0909
0.6364 1.0000 0.2727
0.6364 1.0000 0.4545
0.6364 1.0000 0.6364
0.6364 1.0000 0.8182
0.6364 1.0000 1.0000
0.8182 -1.0000 -1.0000
0.8182 -1.0000 -0.8182
0.8182 -1.0000 -0.6364
0.8182 -1.0000 -0.4545
0.8182 -1.0000 -0.2727
0.8182 -1.0000 -0.0909
0.8182 -1.0000 0.0909
0.8182 -1.0000 0.2727
0.8182 -1.0000 0.4545
0.8182 -1.0000 0.6364
0.8182 -1.0000 0.8182
0.8182 -1.0000 1.0000
0.8182 -0.8182 -1.0000
0.8182 -0.8182 1.0000
0.8182 -0.6364 -1.0000
0.8182 -0.6364 1.0000
0.8182 -0.4545 -1.0000
0.8182 -0.4545 1.0000
0.8182 -0.2727 -1.0000
0.8182 -0.2727 1.0000
0.8182 -0.0909 -1.0000
0.8182 -0.0909 1.0000
0.8182 0.0909 -1.0000
0.8182 0.0909 1.0000
0.8182 0.2727 -1.0000
0.8182 0.2727 1.0000
0.8182 0.4545 -1.0000
0.8182 0.4545 1.0000
0.8182 0.6364 -1.0000
0.8182 0.6364 1.0000
0.8182 0.8182 -1.0000
0.8182 0.8182 1.0000
0.8182 1.0000 -1.0000
0.8182 1.0000 -0.8182
0.8182 1.0000 -0.6364
0.8182 1.0000 -0.4545
0.8182 1.0000 -0.2727
0.8182 1.0000 -0.0909
0.8182 1.0000 0.0909
0.8182 1.0000 0.2727
0.8182 1.0000 0.4545
0.8182 1.0000 0.6364
0.8182 1.0000 0.8182
0.8182 1.0000 1.0000
1.0000 -1.0000 -1.0000
1.0000 -1.0000 -0.8182
1.0000 -1.0000 -0.6364
1.0000 -1.0000 -0.4545
1.0000 -1.0000 -0.2727
1.0000 -1.0000 -0.0909
1.0000 -1.0000 0.0909
1.0000 -1.0000 0.2727
1.0000 -1.0000 0.4545
1.0000 -1.0000 0.6364
1.0000 -1.0000 0.8182
1.0000 -1.0000 1.0000
1.0000 -0.8182 -1.0000
1.0000 -0.8182 -0.8182
1.0000 -0.8182 -0.6364
1.0000 -0.8182 -0.4545
1.0000 -0.8182 -0.2727
1.0000 -0.8182 -0.0909
1.0000 -0.8182 0.0909
1.0000 -0.8182 0.2727
1.0000 -0.8182 0.4545
1.0000 -0.8182 0.6364
1.0000 -0.8182 0.8182
1.0000 -0.8182 1.0000
1.0000 -0.6364 -1.0000
1.0000 -0.6364 -0.8182
1.0000 -0.6364 -0.6364
1.0000 -0.6364 -0.4545
1.0000 -0.6364 -0.2727
1.0000 -0.6364 -0.0909
1.0000 -0.6364 0.0909
1.0000 -0.6364 0.2727
1.0000 -0.6364 0.4545
1.0000 -0.6364 0.6364
1.0000 -0.6364 0.8182
1.0000 -0.6364 1.0000
1.0000 -0.4545 -1.0000
1.0000 -0.4545 -0.8182
1.0000 -0.4545 -0.6364
1.0000 -0.4545 -0.4545
1.0000 -0.4545 -0.2727
1.0000 -0.4545 -0.0909
1.0000 -0.4545 0.0909
1.0000 -0.4545 0.2727
1.0000 -0.4545 0.4545
1.0000 -0.4545 0.6364
1.0000 -0.4545 0.8182
1.0000 -0.4545 1.0000
1.0000 -0.2727 -1.0000
1.0000 -0.2727 -0.8182
1.0000 -0.2727 -0.6364
1.0000 -0.2727 -0.4545
1.0000 -0.2727 -0.2727
1.0000 -0.2727 -0.0909
1.0000 -0.2727 0.0909
1.0000 -0.2727 0.2727
1.0000 -0.2727 0.4545
1.0000 -0.2727 0.6364
1.0000 -0.2727 0.8182
1.0000 -0.2727 1.0000
1.0000 -0.0909 -1.0000
1.0000 -0.0909 -0.8182
1.0000 -0.0909 -0.6364
1.0000 -0.0909 -0.4545
1.0000 -0.0909 -0.2727
1.0000 -0.0909 -0.0909
1.0000 -0.0909 0.0909
1.0000 -0.0909 0.2727
1.0000 -0.0909 0.4545
1.0000 -0.0909 0.6364
1.0000 -0.0909 0.8182
1.0000 -0.0909 1.0000
1.0000 0.0909 -1.0000
1.0000 0.0909 -0.8182
1.0000 0.0909 -0.6364
1.0000 0.0909 -0.4545
1.0000 0.0909 -0.2727
1.0000 0.0909 -0.0909
1.0000 0.0909 0.0909
1.0000 0.0909 0.2727
1.0000 0.0909 0.4545
1.0000 0.0909 0.6364
1.0000 0.0909 0.8182
1.0000 0.0909 1.0000
1.0000 0.2727 -1.0000
1.0000 0.2727 -0.8182
1.0000 0.2727 -0.6364
1.0000 0.2727 -0.4545
1.0000 0.2727 -0.2727
1.0000 0.2727 -0.0909
1.0000 0.2727 0.0909
1.0000 0.2727 0.2727
1.0000 0.2727 0.4545
1.0000 0.2727 0.6364
1.0000 0.2727 0.8182
1.0000 0.2727 1.0000
1.0000 0.4545 -1.0000
1.0000 0.4545 -0.8182
1.0000 0.4545 -0.6364
1.0000 0.4545 -0.4545
1.0000 0.4545 -0.2727
1.0000 0.4545 -0.0909
1.0000 0.4545 0.0909
1.0000 0.4545 0.2727
1.0000 0.4545 0.4545
1.0000 0.4545 0.6364
1.0000 0.4545 0.8182
1.0000 0.4545 1.0000
1.0000 0.6364 -1.0000
1.0000 0.6364 -0.8182
1.0000 0.6364 -0.6364
1.0000 0.6364 -0.4545
1.0000 0.6364 -0.2727
1.0000 0.6364 -0.0909
1.0000 0.6364 0.0909
1.0000 0.6364 0.2727
1.0000 0.6364 0.4545
1.0000 0.6364 0.6364
1.0000 0.6364 0.8182
1.0000 0.6364 1.0000
1.0000 0.8182 -1.0000
1.0000 0.8182 -0.8182
1.0000 0.8182 -0.6364
1.0000 0.8182 -0.4545
1.0000 0.8182 -0.2727
1.0000 0.8182 -0.0909
1.0000 0.8182 0.0909
1.0000 0.8182 0.2727
1.0000 0.8182 0.4545
1.0000 0.8182 0.6364
1.0000 0.8182 0.8182
1.0000 0.8182 1.0000
1.0000 1.0000 -1.0000
1.0000 1.0000 -0.8182
1.0000 1.0000 -0.6364
1.0000 1.0000 -0.4545
1.0000 1.0000 -0.2727
1.0000 1.0000 -0.0909
1.0000 1.0000 0.0909
1.0000 1.0000 0.2727
1.0000 1.0000 0.4545
1.0000 1.0000 0.6364
1.0000 1.0000 0.8182
1.0000 1.0000 1.0000
